<svg xmlns="http://www.w3.org/2000/svg" viewBox="14.5 14.5 227 227" width="512" height="512" role="img" aria-label="scpp logo">
  <title>scpp — safe C++</title>
  <defs>
    <linearGradient id="bodyGradient" x1="0" y1="0" x2="0" y2="1">
      <stop offset="0" stop-color="#0072B5"/>
      <stop offset="1" stop-color="#12B886"/>
    </linearGradient>
  </defs>
  <path d="M184,31 L240,128 L184,225 L72,225 L16,128 L72,31 Z"
        fill="url(#bodyGradient)" stroke="#013A52" stroke-width="3" stroke-linejoin="round"/>
  <path transform="translate(47.36 160.85)" fill="#FFFFFF" d="M27.18 0.90Q20.25 0.90 15.07-1.53Q9.90-3.96 7.06-8.41Q4.23-12.87 4.23-18.90L17.37-18.90Q17.37-15.21 20.02-13Q22.68-10.80 27.18-10.80Q31.59-10.80 34.06-12.91Q36.54-15.03 36.54-18.54Q36.54-21.33 34.92-23.54Q33.30-25.74 30.15-26.46L22.14-28.35Q14.40-30.15 9.86-35.32Q5.31-40.50 5.31-47.70Q5.31-56.52 11.03-61.56Q16.74-66.60 26.64-66.60Q36.54-66.60 42.39-61.52Q48.24-56.43 48.24-47.79L35.10-47.79Q35.10-51.21 32.85-53.14Q30.60-55.08 26.64-55.08Q22.77-55.08 20.61-53.19Q18.45-51.30 18.45-48.15Q18.45-43.02 24.66-41.58L32.94-39.69Q40.68-37.98 45.23-32.27Q49.77-26.55 49.77-18.54Q49.77-12.69 47.02-8.28Q44.28-3.87 39.20-1.48Q34.11 0.90 27.18 0.90M87.75-8.10L74.25-8.10L74.25-23.40L58.95-23.40L58.95-36L74.25-36L74.25-51.30L87.75-51.30L87.75-36L103.05-36L103.05-23.40L87.75-23.40L87.75-8.10M141.75-8.10L128.25-8.10L128.25-23.40L112.95-23.40L112.95-36L128.25-36L128.25-51.30L141.75-51.30L141.75-36L157.05-36L157.05-23.40L141.75-23.40"/>
</svg>